<svg width="82" height="82" viewBox="0 0 82 82" fill="none" xmlns="http://www.w3.org/2000/svg">
<rect width="82" height="82" rx="11" fill="url(#paint0_linear_2214_9258)"/>
<mask id="mask0_2214_9258" style="mask-type:alpha" maskUnits="userSpaceOnUse" x="0" y="0" width="82" height="82">
<rect width="82" height="82" rx="11" fill="#272828"/>
</mask>
<g mask="url(#mask0_2214_9258)">
<rect x="-10" y="-2" width="94" height="17" fill="#EA4A3E"/>
<path d="M40.4162 33.4602C41.669 33.4687 42.8878 33.6903 44.0724 34.125C45.2656 34.5511 46.3395 35.25 47.294 36.2216C48.2486 37.1847 49.0071 38.4759 49.5696 40.0952C50.1321 41.7145 50.4134 43.7173 50.4134 46.1037C50.4219 48.3537 50.1832 50.3651 49.6974 52.1378C49.2202 53.902 48.5341 55.3935 47.6392 56.6122C46.7443 57.831 45.6662 58.7599 44.4048 59.3991C43.1435 60.0384 41.7244 60.358 40.1477 60.358C38.4943 60.358 37.0284 60.0341 35.75 59.3864C34.4801 58.7386 33.4531 57.8523 32.669 56.7273C31.8849 55.6023 31.4034 54.3153 31.2244 52.8665H35.8906C36.1293 53.9062 36.6151 54.733 37.348 55.3466C38.0895 55.9517 39.0227 56.2543 40.1477 56.2543C41.9631 56.2543 43.3608 55.4659 44.3409 53.8892C45.321 52.3125 45.8111 50.1222 45.8111 47.3182H45.6321C45.2145 48.0682 44.6733 48.7159 44.0085 49.2614C43.3438 49.7983 42.5895 50.2116 41.7457 50.5014C40.9105 50.7912 40.0241 50.9361 39.0866 50.9361C37.5526 50.9361 36.1719 50.5696 34.9446 49.8366C33.7259 49.1037 32.7585 48.098 32.0426 46.8196C31.3352 45.5412 30.9773 44.0795 30.9688 42.4347C30.9688 40.7301 31.3608 39.2003 32.1449 37.8452C32.9375 36.4815 34.0412 35.4077 35.456 34.6236C36.8707 33.831 38.5241 33.4432 40.4162 33.4602ZM40.429 37.2955C39.5085 37.2955 38.6776 37.5213 37.9361 37.973C37.2031 38.4162 36.6236 39.0213 36.1974 39.7884C35.7798 40.5469 35.571 41.3949 35.571 42.3324C35.5795 43.2614 35.7884 44.1051 36.1974 44.8636C36.6151 45.6222 37.1818 46.223 37.8977 46.6662C38.6222 47.1094 39.4489 47.331 40.3778 47.331C41.0682 47.331 41.7116 47.1989 42.3082 46.9347C42.9048 46.6705 43.4247 46.304 43.8679 45.8352C44.3196 45.358 44.669 44.8168 44.9162 44.2116C45.1719 43.6065 45.2955 42.9673 45.2869 42.294C45.2869 41.3991 45.0739 40.5724 44.6477 39.8139C44.2301 39.0554 43.6548 38.446 42.9219 37.9858C42.1974 37.5256 41.3665 37.2955 40.429 37.2955Z" fill="black"/>
</g>
<defs>
<linearGradient id="paint0_linear_2214_9258" x1="41" y1="0" x2="41" y2="82" gradientUnits="userSpaceOnUse">
<stop stop-color="white"/>
<stop offset="1" stop-color="#E2E2E2"/>
</linearGradient>
</defs>
</svg>
