<svg width="82" height="82" viewBox="0 0 82 82" fill="none" xmlns="http://www.w3.org/2000/svg">
<rect width="82" height="82" rx="11" fill="#272828"/>
<mask id="mask0_2214_9230" style="mask-type:alpha" maskUnits="userSpaceOnUse" x="0" y="0" width="82" height="82">
<rect width="82" height="82" rx="11" fill="#272828"/>
</mask>
<g mask="url(#mask0_2214_9230)">
<path d="M44.7452 -2.91471C44.9034 -0.464752 44.5116 1.62295 43.57 3.34838C36.6625 15.9268 29.48 28.3895 22.0226 40.7364C19.2129 45.3824 16.6555 49.9761 14.3505 54.5175C14.1543 54.9016 14.1023 55.3425 14.2038 55.7611C14.3052 56.1798 14.5534 56.5492 14.9041 56.8031C18.3165 59.2904 22.2486 60.4444 26.7004 60.2652L16.7007 77.7099L19.6611 70.9315C19.8048 70.6027 19.8281 70.2341 19.7271 69.8888C19.6262 69.5434 19.4071 69.2427 19.1074 69.038L11.1302 63.6376C10.9104 63.4887 10.6617 63.3868 10.4 63.3383C10.1383 63.2898 9.86934 63.2958 9.61011 63.3558C9.35087 63.4159 9.10706 63.5287 8.89414 63.6871C8.68121 63.8456 8.50382 64.0462 8.37323 64.2762L0.0118629 78.9424C-1.36663 73.6316 -1.58885 68.4516 -0.654791 63.4023L22.8022 23.0788C23.0026 22.7314 23.075 22.3257 23.007 21.9313C22.939 21.5368 22.7348 21.178 22.4294 20.9164C18.7458 17.7568 12.3279 14.4516 7.2659 15.2919C3.82343 15.8671 1.07022 15.9716 -0.99376 15.6056C-1.3704 9.67495 -1.21221 5.8805 -0.519198 4.2223C1.39412 -0.341504 4.56164 -2.71677 8.98338 -2.90351C13.7591 -3.10518 25.6798 -3.10892 44.7452 -2.91471Z" fill="#3D3E3C"/>
<path d="M49.2868 39L48.3161 52.9684C48.2956 53.2079 48.3356 53.4492 48.4312 53.6634C48.5268 53.8775 48.6741 54.0556 48.8554 54.1763L82.8976 77.0801C83.1432 77.2408 83.3411 77.4897 83.4639 77.7924C84.6143 80.5592 83.9133 83.0473 81.3607 85.2567L76.9655 86C67.3932 79.7127 58.0187 73.477 48.8419 67.2929C47.1701 66.1573 43.8895 63.0859 39 58.0787C43.1705 58.8014 45.7365 56.8037 46.6983 52.0857C47.5701 47.8012 48.433 43.4393 49.2868 39Z" fill="#3D3E3C"/>
<line x1="74.4368" y1="-8.15057" x2="13.4368" y2="93.8494" stroke="#3D63E3" stroke-width="15"/>
<path d="M55.0528 39.2135L53.4428 48.3535C52.8094 51.2202 52.1694 54.0368 51.5228 56.8035C50.8094 59.8502 48.9061 61.1402 45.8128 60.6735C44.6994 60.2868 43.6828 59.4835 42.7628 58.2635L39.3628 52.1935C39.1282 51.7709 38.7867 51.4173 38.3726 51.1681C37.9584 50.9189 37.486 50.7828 37.0028 50.7735L31.8928 50.6735C24.9728 51.4035 22.6328 45.2835 27.8028 41.2135C33.9361 36.3935 39.5528 31.6302 44.6528 26.9235C46.6061 25.5702 48.1995 24.3835 49.4328 23.3635C53.4828 20.0435 57.9328 23.2235 57.0828 28.2035C56.4561 31.8368 55.7794 35.5068 55.0528 39.2135ZM39.9728 48.0735C40.1842 48.0923 40.3889 48.1577 40.5722 48.2649C40.7554 48.372 40.9127 48.5184 41.0328 48.6935L46.0928 56.1535C46.2531 56.3907 46.4805 56.5747 46.7458 56.682C47.0112 56.7894 47.3026 56.8152 47.5827 56.7561C47.8628 56.6971 48.119 56.5559 48.3185 56.3506C48.518 56.1453 48.6518 55.8852 48.7028 55.6035L53.9828 26.9635C54.0353 26.6735 53.9975 26.3745 53.8746 26.1066C53.7518 25.8388 53.5497 25.6151 53.2957 25.4657C53.0417 25.3164 52.7479 25.2485 52.4541 25.2714C52.1604 25.2942 51.8807 25.4067 51.6528 25.5935L28.5828 44.5735C28.3641 44.7558 28.2044 44.9987 28.1238 45.2717C28.0432 45.5447 28.0453 45.8354 28.1298 46.1072C28.2144 46.379 28.3775 46.6197 28.5988 46.7988C28.82 46.9779 29.0893 47.0874 29.3728 47.1135L39.9728 48.0735Z" fill="#F4E5EB"/>
<path d="M39.9729 48.0735L29.3729 47.1135C29.0894 47.0874 28.8201 46.9779 28.5989 46.7988C28.3776 46.6197 28.2144 46.3791 28.1299 46.1073C28.0454 45.8355 28.0433 45.5447 28.1239 45.2717C28.2045 44.9988 28.3642 44.7558 28.5829 44.5735L51.6529 25.5935C51.8807 25.4067 52.1604 25.2943 52.4542 25.2714C52.748 25.2486 53.0417 25.3164 53.2958 25.4658C53.5498 25.6151 53.7519 25.8388 53.8747 26.1067C53.9976 26.3745 54.0354 26.6736 53.9829 26.9635L48.7029 55.6035C48.6519 55.8852 48.5181 56.1454 48.3186 56.3507C48.1191 56.556 47.8629 56.6971 47.5828 56.7562C47.3027 56.8152 47.0113 56.7894 46.7459 56.6821C46.4806 56.5747 46.2532 56.3907 46.0929 56.1535L41.0329 48.6935C40.9128 48.5184 40.7555 48.3721 40.5723 48.2649C40.389 48.1577 40.1843 48.0924 39.9729 48.0735Z" fill="#EA4A3E"/>
</g>
</svg>
