<svg width="82" height="82" viewBox="0 0 82 82" fill="none" xmlns="http://www.w3.org/2000/svg">
<mask id="mask0_2214_9585" style="mask-type:alpha" maskUnits="userSpaceOnUse" x="0" y="0" width="82" height="82">
<rect width="82" height="82" rx="11" fill="#272828"/>
</mask>
<g mask="url(#mask0_2214_9585)">
<path fill-rule="evenodd" clip-rule="evenodd" d="M63.2739 37.1311C50.8635 29.7613 30.3939 29.0833 18.5463 32.679C16.6439 33.2566 14.6321 32.1824 14.0556 30.28C13.4791 28.3764 14.5522 26.3657 16.4563 25.7875C30.0554 21.6596 52.6627 22.4566 66.9495 30.9375C68.6609 31.9534 69.2227 34.1636 68.208 35.8716C67.1927 37.5829 64.9813 38.147 63.2739 37.1311M62.8675 48.0473C61.9973 49.46 60.1499 49.9027 58.739 49.0354C48.3925 42.6757 32.616 40.8334 20.375 44.5492C18.7878 45.0288 17.111 44.1337 16.6292 42.5493C16.1507 40.962 17.0464 39.2886 18.6308 38.8057C32.6137 34.5627 49.9967 36.6176 61.88 43.9205C63.2909 44.7895 63.7348 46.6375 62.8675 48.0473M58.1568 58.5304C57.4647 59.6647 55.9874 60.0202 54.8571 59.3291C45.8167 53.8033 34.4368 52.5556 21.0354 55.6167C19.7441 55.9126 18.4568 55.1031 18.1626 53.8124C17.8666 52.5211 18.6727 51.2337 19.9675 50.9389C34.6329 47.5865 47.2129 49.0291 57.3604 55.2307C58.4918 55.9211 58.8484 57.3995 58.1568 58.5304ZM40.5 3C19.2373 3 2 20.2368 2 41.4994C2 62.7644 19.2373 80 40.5 80C61.7632 80 79 62.7644 79 41.4994C79 20.2368 61.7632 3 40.5 3" fill="#1ED760"/>
</g>
</svg>
